<svg width="128" height="173" viewBox="0 0 128 173" fill="none" xmlns="http://www.w3.org/2000/svg">
<path d="M111.5 -50C125.184 -49.9998 136.277 -38.9067 136.277 -25.2227V1.13867L155.031 -17.6143C164.708 -27.2904 180.396 -27.2905 190.072 -17.6143C199.748 -7.93801 199.748 7.75044 190.072 17.4268L170.774 36.7236H198.223C211.907 36.7239 223 47.8169 223 61.501C223 75.1852 211.907 86.2791 198.223 86.2793H171.321L190.071 105.029C199.748 114.706 199.748 130.394 190.071 140.07C180.395 149.747 164.707 149.747 155.03 140.07L136.277 121.317V148.223C136.277 161.907 125.184 173 111.5 173C97.8158 173 86.7219 161.907 86.7217 148.223V120.777L67.4287 140.07C57.7524 149.747 42.063 149.747 32.3867 140.07C22.7108 130.394 22.7106 114.705 32.3867 105.029L51.1357 86.2793H24.7773C11.0932 86.2791 5.98157e-07 75.1852 0 61.501C0.000205686 47.8169 11.0933 36.7239 24.7773 36.7236H51.6836L32.3867 17.4268C22.7106 7.75043 22.7105 -7.938 32.3867 -17.6143C42.063 -27.2905 57.7514 -27.2904 67.4277 -17.6143L86.7217 1.67969V-25.2227C86.7219 -38.9068 97.8158 -50 111.5 -50Z" fill="#075442"/>
</svg>
