<svg width="158" height="138" viewBox="0 0 158 138" fill="none" xmlns="http://www.w3.org/2000/svg">
<path d="M17.6481 8.18993C28.2385 -2.7303 45.7615 -2.7303 56.3519 8.18992V8.18992C62.9434 14.9867 72.6174 17.8273 81.8372 15.6731V15.6731C96.6503 12.212 111.392 21.6856 114.397 36.5979V36.5979C116.267 45.8794 122.87 53.4992 131.791 56.6715V56.6715C146.123 61.7684 153.403 77.7079 147.869 91.8777V91.8777C144.424 100.697 145.859 110.677 151.649 118.169V118.169C160.951 130.205 158.457 147.55 146.141 156.478V156.478C138.475 162.035 134.287 171.207 135.107 180.639V180.639C136.425 195.794 124.949 209.037 109.761 209.89V209.89C100.308 210.42 91.8262 215.871 87.4166 224.25V224.25C80.3317 237.711 63.5186 242.648 50.2806 235.154V235.154C42.0412 230.489 31.9588 230.489 23.7194 235.154V235.154C10.4814 242.648 -6.33173 237.711 -13.4166 224.25V224.25C-17.8262 215.871 -26.3081 210.42 -35.7613 209.89V209.89C-50.9494 209.037 -62.4245 195.794 -61.1068 180.639V180.639C-60.2867 171.207 -64.475 162.035 -72.1407 156.478V156.478C-84.457 147.55 -86.9508 130.205 -77.6488 118.169V118.169C-71.8593 110.677 -70.4244 100.697 -73.8688 91.8777V91.8777C-79.4028 77.7079 -72.1235 61.7684 -57.7907 56.6715V56.6715C-48.8699 53.4992 -42.2673 45.8794 -40.3968 36.5979V36.5979C-37.3915 21.6856 -22.6503 12.212 -7.83715 15.6731V15.6731C1.3826 17.8273 11.0566 14.9867 17.6481 8.18993V8.18993Z" fill="#C09834"/>
</svg>
