<svg width="24" height="24" viewBox="0 0 24 24" fill="none" xmlns="http://www.w3.org/2000/svg">
<path d="M3.98771 5.0409V2.7502C4.14916 2.7502 4.35826 2.75 4.81536 2.75L19.2988 2.7502C19.7559 2.7502 19.9578 2.7502 20.1265 2.7502V5.0409C20.0183 5.0409 19.7559 5.04115 19.2988 5.04115L4.81536 5.0409C4.35826 5.0409 4.10926 5.0409 3.98771 5.0409Z" stroke="white" stroke-linecap="round" stroke-linejoin="round"/>
<path d="M3.98767 9.17547V6.88477H19.2988C19.7559 6.88477 19.9877 6.88477 20.1265 6.88477V9.17547C19.9942 9.17547 19.7559 9.17547 19.2988 9.17547H3.98767Z" stroke="white" stroke-linecap="round" stroke-linejoin="round"/>
<path d="M3.87207 21.251V11.16C3.87207 11.0783 4.35827 11.1061 4.81537 11.1061H19.2988C19.7559 11.1061 20.1265 11.0784 20.1265 11.16V21.1039C19.9858 21.0228 12.4557 16.998 12.0419 16.805C11.7841 16.9536 5.21932 20.4746 3.87207 21.251Z" stroke="white" stroke-linecap="round" stroke-linejoin="round"/>
</svg>
