<svg width="748" height="685" viewBox="0 0 748 685" fill="none" xmlns="http://www.w3.org/2000/svg">
<g filter="url(#filter0_d_127_995)">
<g filter="url(#filter1_d_127_995)">
<path d="M52.0542 478.641C52.0542 473.113 56.5354 468.632 62.0632 468.632H252.985C258.513 468.632 262.994 473.113 262.994 478.641V633.266C262.994 638.794 258.513 643.275 252.985 643.275H62.0632C56.5354 643.275 52.0542 638.794 52.0542 633.266V478.641Z" fill="white"/>
<path d="M62.063 468.867H252.985C258.383 468.867 262.758 473.243 262.758 478.641V633.266C262.758 638.663 258.383 643.039 252.985 643.039H62.063C56.6653 643.039 52.2896 638.663 52.2896 633.266V478.641C52.2897 473.243 56.6654 468.867 62.063 468.867Z" stroke="#F1F2F9" stroke-width="0.471051"/>
</g>
<path opacity="0.5" d="M66.2546 486.612C66.2546 484.715 67.7921 483.178 69.6887 483.178H134.006C135.903 483.178 137.44 484.715 137.44 486.612C137.44 488.508 135.903 490.046 134.006 490.046H69.6887C67.7921 490.046 66.2546 488.508 66.2546 486.612Z" fill="#E2E8F9"/>
<g filter="url(#filter2_d_127_995)">
<line opacity="0.7" x1="262.995" y1="506.567" x2="51.9948" y2="506.567" stroke="#F1F2F9" stroke-width="0.629883"/>
</g>
</g>
<circle cx="230.501" cy="486.611" r="2.36875" fill="#D9DBE9"/>
<circle cx="238.813" cy="486.611" r="2.36875" fill="#D9DBE9"/>
<circle cx="247.124" cy="486.611" r="2.36875" fill="#D9DBE9"/>
<path d="M169.031 574.765C169.031 600.419 148.235 621.215 122.581 621.215C96.9269 621.215 76.1304 600.419 76.1304 574.765C76.1304 549.111 96.9269 528.314 122.581 528.314C148.235 528.314 169.031 549.111 169.031 574.765ZM80.7754 574.765C80.7754 597.853 99.4923 616.57 122.581 616.57C145.669 616.57 164.386 597.853 164.386 574.765C164.386 551.676 145.669 532.959 122.581 532.959C99.4923 532.959 80.7754 551.676 80.7754 574.765Z" fill="#F2F4F8"/>
<path d="M136.755 530.53C144.913 533.145 152.189 537.964 157.778 544.456C163.368 550.947 167.054 558.858 168.428 567.314C169.802 575.769 168.811 584.44 165.565 592.367C162.318 600.295 156.943 607.17 150.033 612.234L146.088 606.85C152.006 602.514 156.609 596.627 159.389 589.838C162.168 583.05 163.017 575.625 161.84 568.384C160.664 561.143 157.507 554.369 152.721 548.81C147.934 543.252 141.704 539.125 134.718 536.886L136.755 530.53Z" fill="#EAE8FF"/>
<path opacity="0.5" d="M101.847 568.921C101.847 566.696 103.651 564.892 105.877 564.892H139.284C141.509 564.892 143.314 566.696 143.314 568.921C143.314 571.147 141.509 572.951 139.284 572.951H105.877C103.651 572.951 101.847 571.147 101.847 568.921Z" fill="#E2E8F9"/>
<path opacity="0.5" d="M195.75 534.18C195.75 532.206 197.35 530.605 199.324 530.605H221.199C223.173 530.605 224.773 532.206 224.773 534.18C224.773 536.155 223.173 537.755 221.199 537.755H199.324C197.35 537.755 195.75 536.155 195.75 534.18Z" fill="#D9DBE9"/>
<path opacity="0.5" d="M195.75 569.459C195.75 567.53 197.313 565.967 199.242 565.967H212.037C213.965 565.967 215.529 567.53 215.529 569.459C215.529 571.387 213.965 572.951 212.037 572.951H199.242C197.313 572.951 195.75 571.387 195.75 569.459Z" fill="#D9DBE9"/>
<path opacity="0.5" d="M195.75 605.896C195.75 604.037 197.257 602.529 199.117 602.529H213.911C215.77 602.529 217.278 604.037 217.278 605.896C217.278 607.756 215.77 609.263 213.911 609.263H199.117C197.257 609.263 195.75 607.756 195.75 605.896Z" fill="#D9DBE9"/>
<path d="M111.631 584.377C111.631 582.478 113.17 580.938 115.069 580.938H130.091C131.99 580.938 133.529 582.478 133.529 584.377C133.529 586.276 131.99 587.815 130.091 587.815H115.069C113.17 587.815 111.631 586.276 111.631 584.377Z" fill="#F1F2F9"/>
<path d="M153.069 605.254C154.371 606.555 154.378 608.675 152.987 609.88C148.107 614.105 142.391 617.276 136.197 619.175C128.938 621.4 121.245 621.813 113.79 620.376C106.335 618.939 99.3462 615.697 93.4347 610.933C87.5232 606.169 82.8695 600.029 79.8808 593.05C76.8922 586.071 75.6598 578.466 76.2914 570.9C76.9231 563.335 79.3995 556.039 83.5041 549.652C87.6086 543.265 93.216 537.982 99.8356 534.264C105.485 531.092 111.724 529.142 118.149 528.526C119.981 528.351 121.51 529.819 121.554 531.659C121.598 533.5 120.139 535.012 118.309 535.21C112.974 535.786 107.798 537.437 103.1 540.076C97.4299 543.26 92.6271 547.785 89.1115 553.256C85.596 558.726 83.4749 564.975 82.9339 571.455C82.3929 577.935 83.4485 584.449 86.0083 590.426C88.568 596.404 92.5539 601.663 97.6171 605.743C102.68 609.823 108.666 612.6 115.052 613.831C121.437 615.061 128.026 614.708 134.243 612.802C139.395 611.222 144.162 608.616 148.26 605.152C149.666 603.964 151.768 603.952 153.069 605.254Z" fill="#075442"/>
<path d="M109.196 533.753C108.629 532.015 109.576 530.134 111.35 529.692C118.797 527.836 126.605 527.851 134.074 529.758C141.542 531.666 148.401 535.397 154.046 540.596C155.391 541.834 155.321 543.939 153.989 545.193C152.658 546.446 150.571 546.371 149.212 545.149C144.439 540.857 138.686 537.77 132.435 536.174C126.184 534.577 119.656 534.527 113.41 536.005C111.63 536.426 109.763 535.491 109.196 533.753Z" fill="#E2E8F9"/>
<g filter="url(#filter3_d_127_995)">
<path d="M520.995 15.7684C520.995 8.51327 526.876 2.63184 534.131 2.63184H695.388C702.643 2.63184 708.525 8.51328 708.525 15.7684V196.259C708.525 203.514 702.643 209.395 695.388 209.395H534.131C526.876 209.395 520.995 203.514 520.995 196.259V15.7684Z" fill="white"/>
<path d="M534.131 2.94141H695.388C702.473 2.94143 708.215 8.68416 708.215 15.7686V196.259C708.215 203.343 702.473 209.086 695.388 209.086H534.131C527.047 209.086 521.304 203.343 521.304 196.259V15.7686C521.304 8.68414 527.047 2.94141 534.131 2.94141Z" stroke="#F1F2F9" stroke-width="0.618243"/>
</g>
<g filter="url(#filter4_d_127_995)">
<line opacity="0.7" x1="708.525" y1="48.3743" x2="520.995" y2="48.3743" stroke="#F1F2F9" stroke-width="0.826707"/>
</g>
<rect x="533.355" y="63.812" width="162.81" height="60.2093" rx="4.49012" fill="white" stroke="#F1F2F9" stroke-width="0.446271"/>
<rect x="539.222" y="111.07" width="151.076" height="3.30683" rx="1.65341" fill="#F1F0FB"/>
<rect x="539.222" y="111.07" width="118.083" height="3.30683" rx="1.65341" fill="#075442"/>
<rect x="533.355" y="136.041" width="162.81" height="60.2093" rx="4.49012" fill="white" stroke="#F1F2F9" stroke-width="0.446271"/>
<rect x="539.222" y="183.339" width="151.076" height="3.30683" rx="1.65341" fill="#F1F0FB"/>
<rect x="539.222" y="183.339" width="57.3729" height="3.30683" rx="1.65341" fill="#075442"/>
<g filter="url(#filter5_d_127_995)">
<rect x="640.819" y="13.7856" width="55.3458" height="23.0218" rx="4.49012" fill="#FBFBFE" stroke="#F1F2F9" stroke-width="0.446271"/>
</g>
<path d="M649.411 28.5762L647.635 21.6318H648.494L649.892 27.1129L651.286 21.6318H652.035L653.434 27.1129L654.828 21.6318H655.686L653.92 28.5762H652.948L651.663 23.5465L650.378 28.5762H649.411ZM658.167 28.7051C657.71 28.7051 657.294 28.5877 656.917 28.353C656.543 28.1182 656.244 27.804 656.019 27.4105C655.797 27.0137 655.687 26.5755 655.687 26.0961C655.687 25.7323 655.751 25.3933 655.88 25.0792C656.009 24.7617 656.186 24.484 656.411 24.2459C656.639 24.0045 656.904 23.816 657.204 23.6804C657.505 23.5448 657.826 23.477 658.167 23.477C658.54 23.477 658.883 23.5531 659.194 23.7052C659.508 23.854 659.776 24.0624 659.997 24.3302C660.222 24.5981 660.389 24.9089 660.498 25.2627C660.61 25.6166 660.652 25.9952 660.622 26.3986H656.574C656.614 26.6797 656.707 26.931 656.852 27.1526C656.998 27.3708 657.183 27.5444 657.408 27.6734C657.636 27.8024 657.889 27.8685 658.167 27.8718C658.464 27.8718 658.734 27.7958 658.975 27.6436C659.217 27.4882 659.412 27.2766 659.561 27.0087L660.409 27.2071C660.21 27.647 659.911 28.0074 659.511 28.2885C659.111 28.5663 658.663 28.7051 658.167 28.7051ZM656.55 25.7439H659.784C659.757 25.4661 659.668 25.2131 659.516 24.985C659.364 24.7535 659.17 24.5683 658.936 24.4294C658.701 24.2905 658.445 24.2211 658.167 24.2211C657.889 24.2211 657.634 24.2889 657.403 24.4244C657.171 24.56 656.98 24.7436 656.827 24.975C656.679 25.2032 656.586 25.4595 656.55 25.7439ZM663.611 28.7051C663.155 28.7051 662.738 28.5877 662.361 28.353C661.988 28.1182 661.688 27.804 661.464 27.4105C661.242 27.0137 661.131 26.5755 661.131 26.0961C661.131 25.7323 661.196 25.3933 661.325 25.0792C661.454 24.7617 661.631 24.484 661.855 24.2459C662.084 24.0045 662.348 23.816 662.649 23.6804C662.95 23.5448 663.271 23.477 663.611 23.477C663.985 23.477 664.327 23.5531 664.638 23.7052C664.952 23.854 665.22 24.0624 665.442 24.3302C665.667 24.5981 665.834 24.9089 665.943 25.2627C666.055 25.6166 666.096 25.9952 666.067 26.3986H662.019C662.059 26.6797 662.151 26.931 662.297 27.1526C662.442 27.3708 662.628 27.5444 662.852 27.6734C663.081 27.8024 663.334 27.8685 663.611 27.8718C663.909 27.8718 664.178 27.7958 664.42 27.6436C664.661 27.4882 664.856 27.2766 665.005 27.0087L665.853 27.2071C665.655 27.647 665.356 28.0074 664.956 28.2885C664.555 28.5663 664.107 28.7051 663.611 28.7051ZM661.994 25.7439H665.228C665.202 25.4661 665.113 25.2131 664.961 24.985C664.808 24.7535 664.615 24.5683 664.38 24.4294C664.145 24.2905 663.889 24.2211 663.611 24.2211C663.334 24.2211 663.079 24.2889 662.847 24.4244C662.616 24.56 662.424 24.7436 662.272 24.975C662.123 25.2032 662.031 25.4595 661.994 25.7439ZM670.877 28.5762H669.92L668.6 26.2994L667.687 27.3907V28.5762H666.854V21.1358H667.687V26.0961L669.766 23.6159H670.852L669.166 25.6248L670.877 28.5762Z" fill="#9CA3AF"/>
<path fill-rule="evenodd" clip-rule="evenodd" d="M681.389 23.2532C681.604 23.038 681.953 23.038 682.168 23.2532L685.086 26.1703L688.003 23.2532C688.218 23.038 688.567 23.038 688.782 23.2532C688.997 23.4685 688.997 23.8174 688.782 24.0326L685.475 27.3395C685.26 27.5547 684.911 27.5547 684.696 27.3395L681.389 24.0326C681.174 23.8174 681.174 23.4685 681.389 23.2532Z" fill="#9CA3AF"/>
<g filter="url(#filter6_d_127_995)">
<rect x="655.95" y="91.9746" width="32.9928" height="12.5687" rx="2.65799" fill="#05C168" fill-opacity="0.06" shape-rendering="crispEdges"/>
<rect x="656.393" y="92.4176" width="32.1068" height="11.6827" rx="2.21499" stroke="#05C168" stroke-opacity="0.3" stroke-width="0.885995" shape-rendering="crispEdges"/>
<path d="M661.128 99.5881V98.281H659.82V97.7531H661.128V96.446H661.655V97.7531H662.963V98.281H661.655V99.5881H661.128ZM663.466 99.9023V99.4342C663.627 99.2896 663.808 99.1283 664.009 98.9503C664.211 98.7701 664.411 98.5826 664.61 98.3878C664.811 98.1909 664.995 97.9961 665.163 97.8034C665.33 97.6107 665.465 97.4284 665.568 97.2566C665.671 97.0828 665.722 96.9309 665.722 96.801C665.722 96.646 665.684 96.5046 665.609 96.3768C665.533 96.247 665.432 96.1433 665.304 96.0658C665.178 95.9882 665.038 95.9495 664.883 95.9495C664.728 95.9495 664.586 95.9882 664.456 96.0658C664.328 96.1433 664.225 96.247 664.148 96.3768C664.072 96.5046 664.035 96.646 664.035 96.801H663.507C663.507 96.5434 663.57 96.3108 663.695 96.1035C663.821 95.894 663.987 95.7285 664.195 95.607C664.402 95.4834 664.632 95.4216 664.883 95.4216C665.134 95.4216 665.363 95.4834 665.568 95.607C665.775 95.7306 665.941 95.8971 666.064 96.1066C666.188 96.314 666.25 96.5455 666.25 96.801C666.25 96.9477 666.214 97.1058 666.143 97.2755C666.072 97.4431 665.974 97.6159 665.851 97.7939C665.727 97.972 665.587 98.1522 665.43 98.3344C665.273 98.5146 665.107 98.6926 664.933 98.8686C664.759 99.0445 664.587 99.2132 664.415 99.3745H666.306V99.9023H663.466ZM668.635 99.9023V98.7146H666.743V98.1804L668.503 95.5033H669.163V98.1867H669.599V98.7146H669.163V99.9023H668.635ZM667.362 98.1804L668.635 98.1867L668.625 96.2449L667.362 98.1804ZM670.515 99.984C670.435 99.984 670.367 99.9558 670.311 99.8992C670.256 99.8426 670.229 99.7735 670.229 99.6918C670.229 99.6143 670.256 99.5473 670.311 99.4907C670.367 99.4342 670.435 99.4059 670.515 99.4059C670.597 99.4059 670.666 99.4342 670.722 99.4907C670.779 99.5473 670.807 99.6143 670.807 99.6918C670.807 99.7735 670.779 99.8426 670.722 99.8992C670.666 99.9558 670.597 99.984 670.515 99.984ZM672.239 99.9023L673.179 98.281C672.959 98.3459 672.742 98.3574 672.528 98.3155C672.317 98.2716 672.124 98.1857 671.95 98.0579C671.776 97.928 671.637 97.7646 671.532 97.5677C671.427 97.3708 671.375 97.1519 671.375 96.911C671.375 96.7057 671.414 96.513 671.491 96.3328C671.569 96.1527 671.676 95.9945 671.812 95.8584C671.948 95.7222 672.105 95.6154 672.283 95.5379C672.463 95.4604 672.656 95.4216 672.861 95.4216C673.134 95.4216 673.381 95.4886 673.603 95.6227C673.827 95.7568 674.006 95.9369 674.14 96.1632C674.276 96.3873 674.344 96.6366 674.344 96.911C674.344 97.0597 674.326 97.1917 674.288 97.3069C674.252 97.42 674.198 97.5436 674.124 97.6777L672.849 99.9023H672.239ZM672.855 97.8694C673.041 97.8694 673.207 97.8254 673.351 97.7374C673.498 97.6473 673.612 97.529 673.694 97.3823C673.778 97.2357 673.82 97.0786 673.82 96.911C673.82 96.7288 673.776 96.5654 673.688 96.4208C673.6 96.2742 673.482 96.159 673.336 96.0752C673.189 95.9893 673.031 95.9464 672.861 95.9464C672.675 95.9464 672.508 95.9914 672.362 96.0815C672.217 96.1715 672.103 96.2909 672.019 96.4397C671.937 96.5863 671.897 96.7434 671.897 96.911C671.897 97.087 671.939 97.2483 672.022 97.3949C672.108 97.5394 672.223 97.6546 672.368 97.7405C672.515 97.8264 672.677 97.8694 672.855 97.8694ZM676.2 99.984C675.938 99.984 675.699 99.9243 675.483 99.8049C675.27 99.6855 675.099 99.5263 674.971 99.3273C674.845 99.1262 674.783 98.9042 674.783 98.6612C674.783 98.435 674.842 98.2276 674.962 98.039C675.081 97.8484 675.237 97.6976 675.43 97.5866C675.273 97.486 675.143 97.353 675.04 97.1875C674.94 97.0199 674.889 96.8387 674.889 96.6439C674.889 96.4177 674.948 96.2124 675.065 96.0281C675.185 95.8437 675.343 95.6971 675.54 95.5881C675.739 95.4771 675.959 95.4216 676.2 95.4216C676.441 95.4216 676.659 95.4771 676.856 95.5881C677.055 95.6971 677.214 95.8437 677.331 96.0281C677.45 96.2124 677.51 96.4177 677.51 96.6439C677.51 96.8387 677.46 97.0199 677.359 97.1875C677.259 97.353 677.128 97.486 676.966 97.5866C677.165 97.6976 677.324 97.8484 677.441 98.039C677.56 98.2276 677.62 98.435 677.62 98.6612C677.62 98.9021 677.556 99.1231 677.428 99.3242C677.3 99.5253 677.129 99.6855 676.913 99.8049C676.699 99.9243 676.462 99.984 676.2 99.984ZM676.2 99.4562C676.359 99.4562 676.502 99.4205 676.63 99.3493C676.76 99.2781 676.864 99.1828 676.941 99.0634C677.019 98.9419 677.058 98.8078 677.058 98.6612C677.058 98.5125 677.019 98.3784 676.941 98.259C676.864 98.1396 676.76 98.0443 676.63 97.9731C676.502 97.9018 676.359 97.8662 676.2 97.8662C676.043 97.8662 675.899 97.9018 675.769 97.9731C675.639 98.0443 675.536 98.1396 675.458 98.259C675.381 98.3784 675.342 98.5125 675.342 98.6612C675.342 98.8078 675.381 98.9419 675.458 99.0634C675.536 99.1828 675.639 99.2781 675.769 99.3493C675.899 99.4205 676.043 99.4562 676.2 99.4562ZM676.2 97.3383C676.338 97.3383 676.464 97.3069 676.577 97.2441C676.69 97.1812 676.78 97.0974 676.847 96.9927C676.916 96.888 676.951 96.7717 676.951 96.6439C676.951 96.514 676.916 96.3978 676.847 96.2951C676.78 96.1904 676.69 96.1066 676.577 96.0438C676.464 95.9809 676.338 95.9495 676.2 95.9495C676.061 95.9495 675.936 95.9809 675.823 96.0438C675.71 96.1066 675.618 96.1904 675.549 96.2951C675.482 96.3978 675.449 96.514 675.449 96.6439C675.449 96.7717 675.482 96.888 675.549 96.9927C675.618 97.0974 675.71 97.1812 675.823 97.2441C675.936 97.3069 676.061 97.3383 676.2 97.3383ZM678.404 99.9023L680.943 95.5033H681.552L679.014 99.9023H678.404ZM678.926 97.2723C678.777 97.2723 678.642 97.2367 678.52 97.1655C678.401 97.0943 678.304 96.9979 678.231 96.8764C678.158 96.7549 678.121 96.6198 678.121 96.4711C678.121 96.3182 678.158 96.182 678.231 96.0626C678.304 95.9411 678.402 95.8448 678.523 95.7735C678.645 95.7023 678.779 95.6667 678.926 95.6667C679.072 95.6667 679.206 95.7034 679.328 95.7767C679.449 95.8479 679.546 95.9443 679.617 96.0658C679.69 96.1852 679.727 96.3203 679.727 96.4711C679.727 96.6219 679.69 96.7581 679.617 96.8796C679.543 96.999 679.446 97.0943 679.325 97.1655C679.203 97.2367 679.07 97.2723 678.926 97.2723ZM678.926 96.8859C679.041 96.8859 679.138 96.8461 679.218 96.7665C679.299 96.6848 679.34 96.5863 679.34 96.4711C679.34 96.3538 679.299 96.2553 679.218 96.1757C679.138 96.094 679.041 96.0532 678.926 96.0532C678.81 96.0532 678.712 96.094 678.63 96.1757C678.548 96.2553 678.508 96.3538 678.508 96.4711C678.508 96.5863 678.548 96.6848 678.63 96.7665C678.712 96.8461 678.81 96.8859 678.926 96.8859ZM681.034 99.7421C680.887 99.7421 680.752 99.7054 680.629 99.6321C680.507 99.5567 680.41 99.4583 680.336 99.3368C680.265 99.2132 680.23 99.0801 680.23 98.9377C680.23 98.7869 680.266 98.6507 680.339 98.5292C680.415 98.4077 680.513 98.3114 680.635 98.2401C680.756 98.1689 680.889 98.1333 681.034 98.1333C681.185 98.1333 681.321 98.171 681.442 98.2464C681.564 98.3197 681.66 98.4171 681.731 98.5386C681.803 98.6601 681.838 98.7932 681.838 98.9377C681.838 99.0864 681.802 99.2215 681.728 99.343C681.657 99.4645 681.561 99.5619 681.439 99.6353C681.318 99.7065 681.183 99.7421 681.034 99.7421ZM681.034 99.3556C681.149 99.3556 681.248 99.3148 681.329 99.2331C681.411 99.1514 681.452 99.0529 681.452 98.9377C681.452 98.8225 681.411 98.724 681.329 98.6423C681.248 98.5606 681.149 98.5198 681.034 98.5198C680.919 98.5198 680.82 98.5606 680.739 98.6423C680.657 98.724 680.616 98.8225 680.616 98.9377C680.616 99.0529 680.657 99.1514 680.739 99.2331C680.82 99.3148 680.919 99.3556 681.034 99.3556Z" fill="#05C168"/>
</g>
<g filter="url(#filter7_d_127_995)">
<rect x="660.663" y="164.204" width="28.2795" height="12.5687" rx="2.65799" fill="#FFE9EA"/>
<rect x="661.106" y="164.647" width="27.3935" height="11.6827" rx="2.21499" stroke="#FF7B81" stroke-opacity="0.3" stroke-width="0.885995"/>
<path d="M664.734 169.983H666.745V170.51H664.734V169.983ZM668.806 172.214C668.534 172.214 668.287 172.148 668.065 172.016C667.842 171.884 667.667 171.708 667.537 171.488C667.409 171.266 667.345 171.022 667.345 170.756H667.873C667.873 170.925 667.915 171.081 667.999 171.224C668.082 171.364 668.194 171.476 668.335 171.56C668.477 171.644 668.634 171.686 668.806 171.686C668.976 171.686 669.131 171.644 669.271 171.56C669.411 171.476 669.524 171.364 669.607 171.224C669.691 171.081 669.733 170.925 669.733 170.756C669.733 170.586 669.693 170.43 669.614 170.287C669.536 170.145 669.422 170.032 669.271 169.948C669.12 169.862 668.937 169.819 668.721 169.819H667.637L668.065 167.733H670.151V168.261H668.492L668.288 169.291L668.743 169.294C669.043 169.301 669.306 169.368 669.532 169.496C669.76 169.621 669.938 169.793 670.066 170.011C670.196 170.227 670.261 170.475 670.261 170.756C670.261 170.955 670.223 171.143 670.148 171.321C670.072 171.497 669.968 171.652 669.834 171.786C669.7 171.92 669.544 172.025 669.369 172.1C669.195 172.176 669.007 172.214 668.806 172.214ZM671.173 172.214C671.093 172.214 671.025 172.185 670.968 172.129C670.914 172.072 670.887 172.003 670.887 171.921C670.887 171.844 670.914 171.777 670.968 171.72C671.025 171.664 671.093 171.635 671.173 171.635C671.254 171.635 671.324 171.664 671.38 171.72C671.437 171.777 671.465 171.844 671.465 171.921C671.465 172.003 671.437 172.072 671.38 172.129C671.324 172.185 671.254 172.214 671.173 172.214ZM673.525 172.214C673.247 172.214 672.992 172.144 672.762 172.006C672.531 171.868 672.347 171.684 672.209 171.453C672.071 171.221 672.002 170.964 672.002 170.683C672.002 170.526 672.019 170.389 672.055 170.272C672.093 170.154 672.148 170.028 672.221 169.891L673.466 167.733H674.078L673.189 169.276C673.369 169.219 673.549 169.199 673.727 169.216C673.905 169.233 674.073 169.281 674.232 169.36C674.394 169.44 674.536 169.545 674.66 169.675C674.783 169.805 674.881 169.955 674.952 170.127C675.023 170.297 675.059 170.482 675.059 170.683C675.059 170.895 675.018 171.093 674.936 171.277C674.857 171.462 674.747 171.624 674.606 171.764C674.468 171.905 674.306 172.015 674.119 172.094C673.933 172.174 673.735 172.214 673.525 172.214ZM673.525 171.686C673.718 171.686 673.89 171.639 674.041 171.544C674.194 171.45 674.313 171.326 674.399 171.173C674.487 171.021 674.531 170.857 674.531 170.683C674.531 170.501 674.486 170.335 674.396 170.184C674.308 170.033 674.187 169.912 674.035 169.822C673.884 169.73 673.716 169.684 673.532 169.684C673.339 169.684 673.167 169.731 673.016 169.825C672.866 169.92 672.746 170.042 672.658 170.193C672.572 170.344 672.529 170.507 672.529 170.683C672.529 170.874 672.575 171.045 672.668 171.195C672.76 171.346 672.881 171.466 673.032 171.554C673.185 171.642 673.35 171.686 673.525 171.686ZM676.913 172.214C676.651 172.214 676.412 172.154 676.196 172.034C675.983 171.915 675.812 171.756 675.684 171.557C675.559 171.356 675.496 171.134 675.496 170.891C675.496 170.664 675.555 170.457 675.675 170.269C675.794 170.078 675.95 169.927 676.143 169.816C675.986 169.716 675.856 169.582 675.753 169.417C675.653 169.249 675.603 169.068 675.603 168.873C675.603 168.647 675.661 168.442 675.779 168.258C675.898 168.073 676.056 167.927 676.253 167.818C676.452 167.707 676.672 167.651 676.913 167.651C677.154 167.651 677.373 167.707 677.57 167.818C677.769 167.927 677.927 168.073 678.044 168.258C678.163 168.442 678.223 168.647 678.223 168.873C678.223 169.068 678.173 169.249 678.072 169.417C677.972 169.582 677.841 169.716 677.68 169.816C677.879 169.927 678.037 170.078 678.154 170.269C678.273 170.457 678.333 170.664 678.333 170.891C678.333 171.132 678.269 171.353 678.141 171.554C678.014 171.755 677.842 171.915 677.626 172.034C677.412 172.154 677.175 172.214 676.913 172.214ZM676.913 171.686C677.072 171.686 677.216 171.65 677.343 171.579C677.473 171.508 677.577 171.412 677.654 171.293C677.732 171.171 677.771 171.037 677.771 170.891C677.771 170.742 677.732 170.608 677.654 170.488C677.577 170.369 677.473 170.274 677.343 170.203C677.216 170.131 677.072 170.096 676.913 170.096C676.756 170.096 676.612 170.131 676.482 170.203C676.352 170.274 676.249 170.369 676.171 170.488C676.094 170.608 676.055 170.742 676.055 170.891C676.055 171.037 676.094 171.171 676.171 171.293C676.249 171.412 676.352 171.508 676.482 171.579C676.612 171.65 676.756 171.686 676.913 171.686ZM676.913 169.568C677.051 169.568 677.177 169.536 677.29 169.474C677.403 169.411 677.493 169.327 677.56 169.222C677.629 169.117 677.664 169.001 677.664 168.873C677.664 168.744 677.629 168.627 677.56 168.525C677.493 168.42 677.403 168.336 677.29 168.273C677.177 168.21 677.051 168.179 676.913 168.179C676.775 168.179 676.649 168.21 676.536 168.273C676.423 168.336 676.332 168.42 676.262 168.525C676.195 168.627 676.162 168.744 676.162 168.873C676.162 169.001 676.195 169.117 676.262 169.222C676.332 169.327 676.423 169.411 676.536 169.474C676.649 169.536 676.775 169.568 676.913 169.568ZM679.117 172.132L681.656 167.733H682.266L679.727 172.132H679.117ZM679.639 169.502C679.49 169.502 679.355 169.466 679.233 169.395C679.114 169.324 679.018 169.227 678.944 169.106C678.871 168.984 678.834 168.849 678.834 168.701C678.834 168.548 678.871 168.412 678.944 168.292C679.018 168.171 679.115 168.074 679.236 168.003C679.358 167.932 679.492 167.896 679.639 167.896C679.785 167.896 679.919 167.933 680.041 168.006C680.162 168.077 680.259 168.174 680.33 168.295C680.403 168.415 680.44 168.55 680.44 168.701C680.44 168.851 680.403 168.988 680.33 169.109C680.257 169.228 680.159 169.324 680.038 169.395C679.916 169.466 679.783 169.502 679.639 169.502ZM679.639 169.115C679.754 169.115 679.851 169.076 679.931 168.996C680.013 168.914 680.053 168.816 680.053 168.701C680.053 168.583 680.013 168.485 679.931 168.405C679.851 168.324 679.754 168.283 679.639 168.283C679.523 168.283 679.425 168.324 679.343 168.405C679.262 168.485 679.221 168.583 679.221 168.701C679.221 168.816 679.262 168.914 679.343 168.996C679.425 169.076 679.523 169.115 679.639 169.115ZM681.747 171.972C681.6 171.972 681.465 171.935 681.342 171.862C681.22 171.786 681.123 171.688 681.049 171.566C680.978 171.443 680.943 171.31 680.943 171.167C680.943 171.016 680.979 170.88 681.053 170.759C681.128 170.637 681.226 170.541 681.348 170.47C681.469 170.398 681.603 170.363 681.747 170.363C681.898 170.363 682.034 170.401 682.156 170.476C682.277 170.549 682.373 170.647 682.445 170.768C682.516 170.89 682.551 171.023 682.551 171.167C682.551 171.316 682.515 171.451 682.441 171.573C682.37 171.694 682.274 171.791 682.152 171.865C682.031 171.936 681.896 171.972 681.747 171.972ZM681.747 171.585C681.862 171.585 681.961 171.544 682.042 171.463C682.124 171.381 682.165 171.282 682.165 171.167C682.165 171.052 682.124 170.954 682.042 170.872C681.961 170.79 681.862 170.749 681.747 170.749C681.632 170.749 681.533 170.79 681.452 170.872C681.37 170.954 681.329 171.052 681.329 171.167C681.329 171.282 681.37 171.381 681.452 171.463C681.533 171.544 681.632 171.585 681.747 171.585Z" fill="#FF5A65"/>
</g>
<path opacity="0.5" d="M539.222 97.4409C539.222 94.8334 541.335 92.7197 543.943 92.7197H585.087C587.695 92.7197 589.809 94.8334 589.809 97.4409C589.809 100.048 587.695 102.162 585.087 102.162H543.943C541.335 102.162 539.222 100.048 539.222 97.4409Z" fill="#E2E8F9"/>
<path opacity="0.5" d="M539.222 169.803C539.222 167.27 541.276 165.216 543.809 165.216H582.445C584.979 165.216 587.033 167.27 587.033 169.803C587.033 172.337 584.979 174.391 582.445 174.391H543.809C541.276 174.391 539.222 172.337 539.222 169.803Z" fill="#E2E8F9"/>
<path d="M539.222 77.8424C539.222 75.949 540.757 74.4141 542.65 74.4141H610.101C611.994 74.4141 613.529 75.949 613.529 77.8424C613.529 79.7358 611.994 81.2707 610.101 81.2707H542.65C540.757 81.2707 539.222 79.7358 539.222 77.8424Z" fill="#F1F2F9"/>
<path d="M539.222 150.071C539.222 148.177 540.757 146.643 542.65 146.643H588.548C590.441 146.643 591.976 148.177 591.976 150.071C591.976 151.964 590.441 153.499 588.548 153.499H542.65C540.757 153.499 539.222 151.964 539.222 150.071Z" fill="#F1F2F9"/>
<path d="M533.698 25.2962C533.698 22.807 535.716 20.7891 538.206 20.7891H580.282C582.772 20.7891 584.789 22.807 584.789 25.2962C584.789 27.7854 582.772 29.8032 580.282 29.8032H538.206C535.716 29.8032 533.698 27.7854 533.698 25.2962Z" fill="#E2E8F9"/>
<defs>
<filter id="filter0_d_127_995" x="48.1498" y="467.35" width="218.69" height="182.333" filterUnits="userSpaceOnUse" color-interpolation-filters="sRGB">
<feFlood flood-opacity="0" result="BackgroundImageFix"/>
<feColorMatrix in="SourceAlpha" type="matrix" values="0 0 0 0 0 0 0 0 0 0 0 0 0 0 0 0 0 0 127 0" result="hardAlpha"/>
<feOffset dy="2.5634"/>
<feGaussianBlur stdDeviation="1.92255"/>
<feComposite in2="hardAlpha" operator="out"/>
<feColorMatrix type="matrix" values="0 0 0 0 0.0352941 0 0 0 0 0.0588235 0 0 0 0 0.113725 0 0 0 0.08 0"/>
<feBlend mode="normal" in2="BackgroundImageFix" result="effect1_dropShadow_127_995"/>
<feBlend mode="normal" in="SourceGraphic" in2="effect1_dropShadow_127_995" result="shape"/>
</filter>
<filter id="filter1_d_127_995" x="-0.000110626" y="466.626" width="262.994" height="220.358" filterUnits="userSpaceOnUse" color-interpolation-filters="sRGB">
<feFlood flood-opacity="0" result="BackgroundImageFix"/>
<feColorMatrix in="SourceAlpha" type="matrix" values="0 0 0 0 0 0 0 0 0 0 0 0 0 0 0 0 0 0 127 0" result="hardAlpha"/>
<feOffset dx="-29.1967" dy="20.8521"/>
<feGaussianBlur stdDeviation="11.4288"/>
<feComposite in2="hardAlpha" operator="out"/>
<feColorMatrix type="matrix" values="0 0 0 0 0.412075 0 0 0 0 0.390263 0 0 0 0 0.658826 0 0 0 0.08 0"/>
<feBlend mode="normal" in2="BackgroundImageFix" result="effect1_dropShadow_127_995"/>
<feBlend mode="normal" in="SourceGraphic" in2="effect1_dropShadow_127_995" result="shape"/>
</filter>
<filter id="filter2_d_127_995" x="45.5864" y="502.407" width="223.817" height="13.4469" filterUnits="userSpaceOnUse" color-interpolation-filters="sRGB">
<feFlood flood-opacity="0" result="BackgroundImageFix"/>
<feColorMatrix in="SourceAlpha" type="matrix" values="0 0 0 0 0 0 0 0 0 0 0 0 0 0 0 0 0 0 127 0" result="hardAlpha"/>
<feOffset dy="2.5634"/>
<feGaussianBlur stdDeviation="3.20425"/>
<feComposite in2="hardAlpha" operator="out"/>
<feColorMatrix type="matrix" values="0 0 0 0 0.254902 0 0 0 0 0.286275 0 0 0 0 0.329412 0 0 0 0.06 0"/>
<feBlend mode="normal" in2="BackgroundImageFix" result="effect1_dropShadow_127_995"/>
<feBlend mode="normal" in="SourceGraphic" in2="effect1_dropShadow_127_995" result="shape"/>
</filter>
<filter id="filter3_d_127_995" x="520.995" y="-0.00028038" width="255.845" height="266.764" filterUnits="userSpaceOnUse" color-interpolation-filters="sRGB">
<feFlood flood-opacity="0" result="BackgroundImageFix"/>
<feColorMatrix in="SourceAlpha" type="matrix" values="0 0 0 0 0 0 0 0 0 0 0 0 0 0 0 0 0 0 127 0" result="hardAlpha"/>
<feOffset dx="38.315" dy="27.3679"/>
<feGaussianBlur stdDeviation="15"/>
<feComposite in2="hardAlpha" operator="out"/>
<feColorMatrix type="matrix" values="0 0 0 0 0.412075 0 0 0 0 0.390263 0 0 0 0 0.658826 0 0 0 0.08 0"/>
<feBlend mode="normal" in2="BackgroundImageFix" result="effect1_dropShadow_127_995"/>
<feBlend mode="normal" in="SourceGraphic" in2="effect1_dropShadow_127_995" result="shape"/>
</filter>
<filter id="filter4_d_127_995" x="512.728" y="43.0007" width="204.064" height="17.3613" filterUnits="userSpaceOnUse" color-interpolation-filters="sRGB">
<feFlood flood-opacity="0" result="BackgroundImageFix"/>
<feColorMatrix in="SourceAlpha" type="matrix" values="0 0 0 0 0 0 0 0 0 0 0 0 0 0 0 0 0 0 127 0" result="hardAlpha"/>
<feOffset dy="3.30683"/>
<feGaussianBlur stdDeviation="4.13354"/>
<feComposite in2="hardAlpha" operator="out"/>
<feColorMatrix type="matrix" values="0 0 0 0 0.254902 0 0 0 0 0.286275 0 0 0 0 0.329412 0 0 0 0.06 0"/>
<feBlend mode="normal" in2="BackgroundImageFix" result="effect1_dropShadow_127_995"/>
<feBlend mode="normal" in="SourceGraphic" in2="effect1_dropShadow_127_995" result="shape"/>
</filter>
<filter id="filter5_d_127_995" x="638.943" y="12.7358" width="59.0988" height="26.7746" filterUnits="userSpaceOnUse" color-interpolation-filters="sRGB">
<feFlood flood-opacity="0" result="BackgroundImageFix"/>
<feColorMatrix in="SourceAlpha" type="matrix" values="0 0 0 0 0 0 0 0 0 0 0 0 0 0 0 0 0 0 127 0" result="hardAlpha"/>
<feOffset dy="0.826707"/>
<feGaussianBlur stdDeviation="0.826707"/>
<feComposite in2="hardAlpha" operator="out"/>
<feColorMatrix type="matrix" values="0 0 0 0 0.254902 0 0 0 0 0.286275 0 0 0 0 0.329412 0 0 0 0.05 0"/>
<feBlend mode="normal" in2="BackgroundImageFix" result="effect1_dropShadow_127_995"/>
<feBlend mode="normal" in="SourceGraphic" in2="effect1_dropShadow_127_995" result="shape"/>
</filter>
<filter id="filter6_d_127_995" x="654.178" y="91.0886" width="36.5367" height="16.1123" filterUnits="userSpaceOnUse" color-interpolation-filters="sRGB">
<feFlood flood-opacity="0" result="BackgroundImageFix"/>
<feColorMatrix in="SourceAlpha" type="matrix" values="0 0 0 0 0 0 0 0 0 0 0 0 0 0 0 0 0 0 127 0" result="hardAlpha"/>
<feOffset dy="0.885995"/>
<feGaussianBlur stdDeviation="0.885995"/>
<feComposite in2="hardAlpha" operator="out"/>
<feColorMatrix type="matrix" values="0 0 0 0 0.361007 0 0 0 0 0.997326 0 0 0 0 0.577356 0 0 0 0.15 0"/>
<feBlend mode="normal" in2="BackgroundImageFix" result="effect1_dropShadow_127_995"/>
<feBlend mode="normal" in="SourceGraphic" in2="effect1_dropShadow_127_995" result="shape"/>
</filter>
<filter id="filter7_d_127_995" x="658.891" y="163.318" width="31.8235" height="16.1123" filterUnits="userSpaceOnUse" color-interpolation-filters="sRGB">
<feFlood flood-opacity="0" result="BackgroundImageFix"/>
<feColorMatrix in="SourceAlpha" type="matrix" values="0 0 0 0 0 0 0 0 0 0 0 0 0 0 0 0 0 0 127 0" result="hardAlpha"/>
<feOffset dy="0.885995"/>
<feGaussianBlur stdDeviation="0.885995"/>
<feComposite in2="hardAlpha" operator="out"/>
<feColorMatrix type="matrix" values="0 0 0 0 0.997326 0 0 0 0 0.361007 0 0 0 0 0.513724 0 0 0 0.15 0"/>
<feBlend mode="normal" in2="BackgroundImageFix" result="effect1_dropShadow_127_995"/>
<feBlend mode="normal" in="SourceGraphic" in2="effect1_dropShadow_127_995" result="shape"/>
</filter>
</defs>
</svg>
